PathFileType	4	(X/Y/Z)	output.trc
DataRate	CameraRate	NumFrames	NumMarkers	Units	OrigDataRate	OrigDataStartFrame	OrigNumFrames
120	120	6	18	mm	120	1271	1
Frame#	Time	K4ABT_JOINT_PELVISx			K4ABT_JOINT_SPINE_NAVEL			T8			C7			K4ABT_JOINT_CLAVICLE_LEFT			K4ABT_JOINT_SHOULDER_LEFT			K4ABT_JOINT_ELBOW_LEFT			K4ABT_JOINT_WRIST_LEFT			K4ABT_JOINT_HAND_LEFT			K4ABT_JOINT_HANDTIP_LEFT			K4ABT_JOINT_THUMB_LEFT			K4ABT_JOINT_CLAVICLE_RIGHT			GH			Elbow_Midpoint			Wrist_Midpointx			K4ABT_JOINT_HAND_RIGHT			K4ABT_JOINT_HANDTIP_RIGHT			K4ABT_JOINT_THUMB_RIGHTx
		X1	Y1	Z1	X2	Y2	Z2	X3	Y3	Z3	X4	Y4	Z4	X5	Y5	Z5	X6	Y6	Z6	X7	Y7	Z7	X8	Y8	Z8	X9	Y9	Z9	X10	Y10	Z10	X11	Y11	Z11	X12	Y12	Z12	X13	Y13	Z13	X14	Y14	Z14	X15	Y15	Z15	X16	Y16	Z16	X17	Y17	Z17	X18	Y18	Z18
1271	19.774801	-250.818054	-255.480484	1557.144803	271.890579	-106.355157	1508.498040	276.624572	13.944148	1469.577993	275.473111	199.681430	1418.653189	267.665865	176.820373	1454.808312	215.400914	175.787538	1570.345206	142.272539	-3.603918	1720.540815	-16.152046	-134.859262	1725.719680	-20.358812	-217.204998	1749.039911	41.020899	-230.940422	1676.790789	57.071857	-196.772794	1665.370316	285.409969	161.344295	1399.948055	309.765273	115.051291	1295.682766	485.776053	-58.807306	1328.251597	588.668165	-237.125916	1360.657149	585.302979	-297.764028	1291.952834	603.719137	-388.819622	1279.247527	558.020872	-304.112788	1284.181178
1272	19.783100	-250.902641	-255.524538	1557.231421	271.820288	-106.305716	1508.673629	276.554753	14.054433	1469.836737	275.589966	199.888651	1419.079318	267.832370	177.000679	1455.241903	215.979826	175.868840	1570.997794	142.756797	-4.425557	1720.177863	-15.471455	-135.978980	1725.435488	-20.346929	-218.294151	1748.825934	41.218496	-230.995551	1676.513455	57.568497	-197.948511	1665.032007	285.417825	161.542908	1400.307366	309.518986	115.019221	1296.043550	483.142686	-61.174429	1328.964983	584.958615	-240.107406	1361.608932	581.388928	-301.181885	1293.433531	596.936674	-392.714900	1280.192107	555.100045	-307.470622	1284.997274
1273	19.791399	-250.987228	-255.568593	1557.318038	271.749998	-106.256275	1508.849218	276.484933	14.164718	1470.095480	275.706820	200.095871	1419.505447	267.998875	177.180985	1455.675494	216.558737	175.950142	1571.650382	143.241056	-5.247197	1719.814910	-14.790864	-137.098698	1725.151295	-20.335047	-219.383304	1748.611956	41.416093	-231.050680	1676.236121	58.065138	-199.124229	1664.693698	285.425680	161.741521	1400.666677	309.272699	114.987150	1296.404334	480.509319	-63.541553	1329.678370	581.249065	-243.088896	1362.560715	577.474877	-304.599743	1294.914228	590.154211	-396.610178	1281.136688	552.179218	-310.828456	1285.813370
1274	19.799697	-251.071815	-255.612647	1557.404656	271.679708	-106.206834	1509.024807	276.415113	14.275004	1470.354224	275.823674	200.303091	1419.931576	268.165379	177.361292	1456.109085	217.137649	176.031445	1572.302970	143.725315	-6.068837	1719.451958	-14.110273	-138.218415	1724.867103	-20.323165	-220.472457	1748.397979	41.613690	-231.105809	1675.958787	58.561778	-200.299946	1664.355389	285.433536	161.940134	1401.025987	309.026412	114.955080	1296.765118	477.875952	-65.908676	1330.391756	577.539515	-246.070386	1363.512498	573.560826	-308.017600	1296.394925	583.371747	-400.505456	1282.081268	549.258391	-314.186291	1286.629466
1275	19.807996	-251.126087	-255.708460	1557.364172	271.510420	-106.222062	1509.129603	276.116997	14.307682	1470.585513	275.753936	200.433598	1420.513774	268.152393	177.438121	1456.669811	217.669899	176.027875	1573.097694	144.348160	-6.745677	1719.467359	-13.554251	-138.787171	1724.890006	-20.312078	-221.022286	1748.170282	41.790524	-231.136394	1675.780264	58.798908	-201.118449	1664.181784	285.233633	162.087384	1401.509004	308.460150	115.126912	1297.157850	475.087862	-67.840659	1330.695898	572.591520	-248.990848	1363.728837	569.763048	-312.206291	1298.087647	578.470884	-404.644894	1282.674903	546.907028	-318.450206	1287.616087
1276	19.816295	-251.169407	-255.822971	1557.277768	271.305365	-106.260654	1509.208823	275.736402	14.312323	1470.806883	275.616785	200.536390	1421.152357	268.074559	177.477567	1457.276468	218.185292	175.993642	1573.943769	145.021074	-7.370203	1719.619453	-13.043233	-139.156873	1725.023858	-20.301279	-221.377268	1747.937628	41.959857	-231.158111	1675.637440	58.942281	-201.807897	1664.067684	284.958670	162.216078	1402.036714	307.778286	115.372410	1297.562124	472.243874	-69.615433	1330.852186	567.196097	-251.889262	1363.679472	566.007278	-316.673470	1299.856971	574.249810	-408.872543	1283.141747	544.761403	-323.041472	1288.664316
